# Blender 4.5.3 LTS
# www.blender.org
mtllib barco.mtl
o Cube
v 4.645786 1.179928 -0.655987
v 4.976662 0.534123 -0.677416
v -3.362783 0.534123 0.000000
v -3.362783 2.534123 0.000000
v -0.235963 1.179928 -1.857351
v -1.000000 0.534123 -2.228253
v -3.159116 0.534123 -1.871560
v -3.362783 2.534123 -2.433458
v -1.000000 0.534123 0.000000
v 4.645786 1.179928 0.006563
v -0.235963 1.179928 -0.005813
v 4.976662 0.534123 0.000000
v -3.289524 3.917708 -0.003005
v -1.172945 3.917708 -0.003005
v -1.172945 3.917708 -2.457395
v -3.289524 3.917708 -2.457395
v -3.362783 3.501280 0.000000
v -1.263360 3.501280 0.000000
v -1.263360 3.501280 -2.433458
v -3.362783 3.501280 -2.433458
v -3.626773 3.501280 -0.007721
v -0.724753 3.501280 -0.007721
v -0.724753 3.501280 -2.736788
v -3.626773 3.501280 -2.736788
v 3.395566 0.534123 -2.000060
v 3.258399 1.179928 -1.759745
v 5.740757 2.534123 -0.598334
v 5.455511 1.300921 -0.598334
v 5.455511 1.300921 0.000000
v 5.740757 2.534123 0.000000
v 4.862092 2.635934 -0.896239
v 4.862092 2.635934 0.000000
v 5.830057 2.635934 -0.698202
v 5.830057 2.635934 0.000000
v 4.862092 2.961671 -0.896239
v 4.862092 2.961671 0.000000
v 5.830057 2.961671 -0.698202
v 5.830057 2.961671 0.000000
v -1.263360 2.534123 0.000000
v -1.263360 2.534123 -2.433458
v 3.395566 2.534123 -2.324220
v 4.976662 2.534123 -0.796371
v 4.976662 2.534123 0.000000
v -1.000000 2.534123 0.000000
v -1.000000 2.534123 -2.433458
v 3.395566 2.534123 -2.324220
v 4.976662 2.534123 -0.796371
v 4.976662 2.534123 0.000000
v -0.426432 2.594020 -0.012182
v -0.426432 2.574679 -2.192180
v 3.337360 2.511037 -2.087878
v 4.836256 2.534123 -0.736800
v 4.836256 2.534123 0.009425
v 4.645786 1.179928 0.655987
v 4.976662 0.534123 0.677416
v -0.235963 1.179928 1.857351
v -1.000000 0.534123 2.228253
v -3.159116 0.534123 1.871560
v -3.362783 2.534123 2.433458
v 4.645786 1.179928 -0.006563
v -0.235963 1.179928 0.005813
v -3.289524 3.917708 0.003005
v -1.172945 3.917708 0.003005
v -1.172945 3.917708 2.457395
v -3.289524 3.917708 2.457395
v -1.263360 3.501280 2.433458
v -3.362783 3.501280 2.433458
v -3.626773 3.501280 0.007721
v -0.724753 3.501280 0.007721
v -0.724753 3.501280 2.736788
v -3.626773 3.501280 2.736788
v 3.395566 0.534123 2.000060
v 3.258399 1.179928 1.759745
v 5.740757 2.534123 0.598334
v 5.455511 1.300921 0.598334
v 4.862092 2.635934 0.896239
v 5.830057 2.635934 0.698202
v 4.862092 2.961671 0.896239
v 5.830057 2.961671 0.698202
v -1.263360 2.534123 2.433458
v 3.395566 2.534123 2.324220
v 4.976662 2.534123 0.796371
v -1.000000 2.534123 2.433458
v 3.395566 2.534123 2.324220
v 4.976662 2.534123 0.796371
v -0.426432 2.594020 0.012182
v -0.426432 2.574679 2.192180
v 3.337360 2.511037 2.087878
v 4.836256 2.534123 0.736800
v 4.836256 2.534123 -0.009425
vn -0.0000 -0.0000 1.0000
vn -0.0000 -0.2705 -0.9627
vn -0.0000 -0.0000 -1.0000
vn 0.6410 -0.0456 -0.7662
vn 0.2516 -0.0575 -0.9661
vn 0.9743 -0.2254 -0.0000
vn -0.9941 -0.0000 -0.1082
vn -0.0000 -1.0000 -0.0000
vn -0.0000 1.0000 -0.0000
vn 1.0000 -0.0000 -0.0000
vn -1.0000 -0.0000 -0.0000
vn -0.0000 0.5571 -0.8304
vn 0.6807 0.7326 -0.0000
vn -0.7771 0.6294 -0.0000
vn 0.8482 -0.5297 -0.0000
vn -0.6643 -0.7475 -0.0000
vn 0.0512 -0.1598 -0.9858
vn 0.7518 -0.6594 -0.0000
vn 0.1630 -0.7601 -0.6291
vn 0.2004 -0.0000 -0.9797
vn -0.1040 0.9945 -0.0088
vn -0.0758 0.9940 0.0784
vn 0.0044 0.9844 -0.1759
vn 0.9911 0.1335 -0.0000
vn -0.9903 0.1393 -0.0000
vn 0.0670 -0.0000 0.9978
vn -0.0231 0.2304 0.9728
vn -0.6554 0.2172 0.7234
vn -0.1618 -0.1218 0.9793
vn 0.6902 -0.1158 0.7143
vn 0.2516 -0.0575 0.9661
vn -0.9941 -0.0000 0.1082
vn -0.0000 0.5571 0.8304
vn 0.0233 -0.0990 0.9948
vn 0.1630 -0.7601 0.6291
vn 0.2004 -0.0000 0.9797
vn -0.1040 0.9945 0.0088
vn -0.0049 0.9999 0.0116
vn 0.0140 0.9948 -0.1006
vn 0.0670 -0.0000 -0.9978
vn -0.0271 0.2408 -0.9702
vn -0.6170 0.1331 -0.7756
vn -0.1618 -0.1218 -0.9793
vn 0.6902 -0.1158 -0.7143
vn 0.2505 -0.0579 -0.9664
vn -0.9949 -0.1013 -0.0000
vn 0.0233 -0.0990 -0.9948
vn 0.1615 -0.5925 -0.7892
vn -0.0705 0.9975 -0.0000
vn -0.0049 0.9999 -0.0116
vn 0.0140 0.9948 0.1006
vn 0.9908 0.1350 -0.0012
vn 0.0205 0.0073 0.9998
vn 0.0076 -0.0000 1.0000
vn -0.0025 0.0120 0.9999
vn -0.0000 -0.0102 0.9999
vn 0.0123 -0.0038 0.9999
vn -0.0271 0.2408 0.9702
vn -0.6170 0.1331 0.7756
vn -0.0000 -0.2705 0.9627
vn 0.6410 -0.0456 0.7662
vn 0.2505 -0.0579 0.9664
vn 0.0512 -0.1598 0.9858
vn 0.1615 -0.5925 0.7892
vn -0.0758 0.9940 -0.0784
vn 0.0044 0.9844 0.1759
vn 0.9908 0.1350 0.0012
vn 0.0205 0.0073 -0.9998
vn 0.0076 -0.0000 -1.0000
vn -0.0025 0.0120 -0.9999
vn -0.0000 -0.0102 -0.9999
vn 0.0123 -0.0038 -0.9999
vn -0.0231 0.2304 -0.9728
vn -0.6554 0.2172 -0.7234
vt 0.625000 0.125000
vt 0.125000 0.625000
vt 0.625000 0.250000
vt 0.375000 0.250000
vt 0.375000 0.375000
vt 0.625000 0.500000
vt 0.375000 0.500000
vt 0.375000 0.625000
vt 0.375000 0.125000
vt 0.250000 0.500000
vt 0.125000 0.500000
vt 0.875000 0.519889
vt 0.875000 0.605111
vt 0.875000 0.500000
vt 0.875000 0.625000
vt 0.875000 0.508363
vt 0.875000 0.616637
vt 0.875000 0.508363
vt 0.875000 0.616637
vt 0.875000 0.519889
vt 0.625000 0.625000
vt 0.625000 0.375000
vt 0.743418 0.511980
vt 0.862238 0.607317
vt 0.640932 0.583886
vt 0.750000 0.500000
vt 0.870501 0.507155
vt 0.869542 0.617603
vt 0.747055 0.504803
vt 0.633031 0.519104
vt 0.864153 0.516736
vt 0.643066 0.541729
vt 0.631531 0.606484
s 0
usemtl Material
f 39/1/1 3/2/1 9/2/1
f 40/3/2 7/4/2 8/3/2
f 8/3/3 19/3/3 40/3/3
f 25/5/4 42/6/4 2/7/4
f 42/6/5 28/7/5 2/7/5
f 27/6/6 29/8/6 28/7/6
f 4/1/7 7/4/7 3/9/7
f 25/10/8 12/8/8 9/2/8
f 9/2/8 7/11/8 6/11/8
f 15/12/9 13/13/9 14/13/9
f 39/1/1 17/1/1 4/1/1
f 40/14/10 18/15/10 39/15/10
f 4/1/11 20/3/11 8/3/11
f 24/16/8 19/14/8 20/14/8
f 22/17/8 19/14/8 23/18/8
f 21/19/8 20/14/8 17/15/8
f 15/12/12 24/16/12 16/20/12
f 15/12/13 22/17/13 23/18/13
f 16/20/14 21/19/14 13/13/14
f 12/8/15 28/7/15 29/8/15
f 42/6/16 32/21/16 31/6/16
f 6/4/17 41/22/17 25/5/17
f 26/23/9 11/24/9 10/25/9
f 43/21/1 29/8/1 30/21/1
f 33/6/10 38/21/10 34/21/10
f 27/6/18 34/21/18 30/21/18
f 43/21/1 34/21/1 32/21/1
f 42/6/19 33/6/19 27/6/19
f 36/21/9 37/6/9 35/6/9
f 31/6/20 37/6/20 33/6/20
f 32/21/11 35/6/11 31/6/11
f 34/21/1 36/21/1 32/21/1
f 45/14/9 39/15/9 44/15/9
f 46/26/9 42/6/9 41/26/9
f 47/6/9 43/21/9 42/6/9
f 45/14/8 41/26/8 40/14/8
f 50/27/21 44/15/21 49/28/21
f 51/29/22 47/6/22 46/26/22
f 52/30/9 48/21/9 47/6/9
f 50/27/23 46/26/23 45/14/23
f 5/31/24 49/28/24 11/24/24
f 1/32/25 53/33/25 52/30/25
f 12/8/26 48/21/26 53/33/26
f 5/31/27 51/29/27 50/27/27
f 26/23/28 52/30/28 51/29/28
f 80/3/29 58/4/29 57/4/29
f 66/3/1 59/3/1 80/3/1
f 72/5/30 82/6/30 81/22/30
f 75/7/31 82/6/31 55/7/31
f 29/8/6 74/6/6 75/7/6
f 58/4/32 4/1/32 3/9/32
f 9/2/8 55/7/8 72/10/8
f 58/11/8 9/2/8 57/11/8
f 62/13/9 64/12/9 63/13/9
f 18/15/10 80/14/10 39/15/10
f 67/3/11 4/1/11 59/3/11
f 71/16/8 66/14/8 70/18/8
f 66/14/8 69/17/8 70/18/8
f 68/19/8 67/14/8 71/16/8
f 71/16/33 64/12/33 65/20/33
f 64/12/13 69/17/13 63/13/13
f 68/19/14 65/20/14 62/13/14
f 12/8/15 75/7/15 55/7/15
f 82/6/16 32/21/16 43/21/16
f 57/4/34 81/22/34 80/3/34
f 60/25/9 56/31/9 73/23/9
f 38/21/10 77/6/10 34/21/10
f 34/21/18 74/6/18 30/21/18
f 77/6/35 82/6/35 74/6/35
f 79/6/9 36/21/9 78/6/9
f 79/6/36 76/6/36 77/6/36
f 78/6/11 32/21/11 76/6/11
f 39/15/9 83/14/9 44/15/9
f 84/26/9 82/6/9 85/6/9
f 85/6/9 43/21/9 48/21/9
f 83/14/9 81/26/9 84/26/9
f 44/15/37 87/27/37 86/28/37
f 88/29/38 85/6/38 89/30/38
f 89/30/9 48/21/9 90/33/9
f 87/27/39 84/26/39 88/29/39
f 86/28/24 56/31/24 61/24/24
f 54/32/25 90/33/25 60/25/25
f 90/33/40 48/21/40 12/8/40
f 56/31/41 88/29/41 73/23/41
f 73/23/42 89/30/42 54/32/42
f 39/1/1 4/1/1 3/2/1
f 40/3/43 6/4/43 7/4/43
f 8/3/3 20/3/3 19/3/3
f 25/5/44 41/22/44 42/6/44
f 42/6/45 27/6/45 28/7/45
f 27/6/6 30/21/6 29/8/6
f 4/1/46 8/3/46 7/4/46
f 9/2/8 6/11/8 25/10/8
f 25/10/8 2/7/8 12/8/8
f 9/2/8 3/2/8 7/11/8
f 15/12/9 16/20/9 13/13/9
f 39/1/1 18/1/1 17/1/1
f 40/14/10 19/14/10 18/15/10
f 4/1/11 17/1/11 20/3/11
f 24/16/8 23/18/8 19/14/8
f 22/17/8 18/15/8 19/14/8
f 21/19/8 24/16/8 20/14/8
f 15/12/12 23/18/12 24/16/12
f 15/12/13 14/13/13 22/17/13
f 16/20/14 24/16/14 21/19/14
f 12/8/15 2/7/15 28/7/15
f 42/6/16 43/21/16 32/21/16
f 6/4/47 40/3/47 41/22/47
f 10/25/9 1/32/9 26/23/9
f 26/23/9 5/31/9 11/24/9
f 43/21/1 12/8/1 29/8/1
f 33/6/10 37/6/10 38/21/10
f 27/6/18 33/6/18 34/21/18
f 43/21/1 30/21/1 34/21/1
f 42/6/48 31/6/48 33/6/48
f 36/21/9 38/21/9 37/6/9
f 31/6/20 35/6/20 37/6/20
f 32/21/11 36/21/11 35/6/11
f 34/21/1 38/21/1 36/21/1
f 45/14/9 40/14/9 39/15/9
f 46/26/9 47/6/9 42/6/9
f 47/6/9 48/21/9 43/21/9
f 45/14/9 46/26/9 41/26/9
f 50/27/49 45/14/49 44/15/49
f 51/29/50 52/30/50 47/6/50
f 52/30/9 53/33/9 48/21/9
f 50/27/51 51/29/51 46/26/51
f 5/31/52 50/27/52 49/28/52
f 1/32/25 10/25/25 53/33/25
f 11/24/53 49/28/53 44/15/53
f 44/15/1 39/1/1 9/2/1
f 11/24/54 44/15/54 9/2/54
f 10/25/55 11/24/55 9/2/55
f 10/25/56 9/2/56 12/8/56
f 53/33/57 10/25/57 12/8/57
f 12/8/9 43/21/9 48/21/9
f 5/31/58 26/23/58 51/29/58
f 26/23/59 1/32/59 52/30/59
f 80/3/60 59/3/60 58/4/60
f 66/3/1 67/3/1 59/3/1
f 72/5/61 55/7/61 82/6/61
f 75/7/62 74/6/62 82/6/62
f 29/8/6 30/21/6 74/6/6
f 58/4/46 59/3/46 4/1/46
f 72/10/8 57/11/8 9/2/8
f 9/2/8 12/8/8 55/7/8
f 58/11/8 3/2/8 9/2/8
f 62/13/9 65/20/9 64/12/9
f 18/15/10 66/14/10 80/14/10
f 67/3/11 17/1/11 4/1/11
f 71/16/8 67/14/8 66/14/8
f 66/14/8 18/15/8 69/17/8
f 68/19/8 17/15/8 67/14/8
f 71/16/33 70/18/33 64/12/33
f 64/12/13 70/18/13 69/17/13
f 68/19/14 71/16/14 65/20/14
f 12/8/15 29/8/15 75/7/15
f 82/6/16 76/6/16 32/21/16
f 57/4/63 72/5/63 81/22/63
f 73/23/9 54/32/9 60/25/9
f 60/25/9 61/24/9 56/31/9
f 38/21/10 79/6/10 77/6/10
f 34/21/18 77/6/18 74/6/18
f 77/6/64 76/6/64 82/6/64
f 79/6/9 38/21/9 36/21/9
f 79/6/36 78/6/36 76/6/36
f 78/6/11 36/21/11 32/21/11
f 39/15/9 80/14/9 83/14/9
f 84/26/9 81/26/9 82/6/9
f 85/6/9 82/6/9 43/21/9
f 83/14/8 80/14/8 81/26/8
f 44/15/49 83/14/49 87/27/49
f 88/29/65 84/26/65 85/6/65
f 89/30/9 85/6/9 48/21/9
f 87/27/66 83/14/66 84/26/66
f 86/28/67 87/27/67 56/31/67
f 54/32/25 89/30/25 90/33/25
f 44/15/68 86/28/68 61/24/68
f 9/2/69 44/15/69 61/24/69
f 9/2/70 61/24/70 60/25/70
f 12/8/71 9/2/71 60/25/71
f 12/8/72 60/25/72 90/33/72
f 56/31/73 87/27/73 88/29/73
f 73/23/74 88/29/74 89/30/74
