# Blender 4.5.3 LTS
# www.blender.org
mtllib barcoPapel.mtl
o Cube
v -0.009621 1.503893 -0.014757
v 0.001327 -0.454249 -1.895392
v 0.691689 -0.454249 0.004473
v -0.011330 1.503893 -0.006823
v -0.619580 -0.454249 0.011449
v -0.016267 -0.454249 1.870003
v 1.406716 0.295953 0.016018
v -0.013885 0.777372 3.734890
v 0.058918 0.800338 -3.748342
v -1.421656 0.268889 -0.001576
v 1.204831 0.275662 0.014565
v -0.012682 0.645527 3.126238
v 0.049995 0.688265 -3.144026
v -1.218913 0.244715 0.000359
v 0.951612 0.173806 0.012696
v -0.011135 0.173806 2.552263
v 0.038513 0.173806 -2.588976
v -0.958020 0.173806 0.002849
v 0.531763 -0.021369 0.011200
v -0.009896 0.173806 2.244733
v 0.029325 0.173806 -2.049745
v -0.648766 0.009304 0.004841
vn 0.7410 -0.5833 0.3327
vn -0.7330 -0.6012 0.3181
vn -0.0000 -1.0000 -0.0000
vn 0.7470 -0.5824 -0.3207
vn -0.7380 -0.5888 -0.3297
vn -0.1688 0.9680 -0.1858
vn -0.1197 0.9777 0.1728
vn 0.1681 0.9669 -0.1921
vn 0.1131 0.9765 0.1833
vn -0.7109 0.6286 -0.3154
vn -0.7415 0.5957 0.3089
vn 0.6884 0.6569 -0.3076
vn 0.7137 0.6181 0.3296
vn -0.3301 0.9332 -0.1422
vn -0.2777 0.9526 0.1242
vn 0.3466 0.9265 -0.1466
vn 0.2791 0.9508 0.1343
vn 0.9254 0.3251 -0.1948
vn -0.8951 0.3836 0.2271
vn -0.8884 0.3765 -0.2628
vn 0.9233 0.3310 0.1950
vt 0.375000 0.750000
vt 0.625000 0.750000
vt 0.625000 1.000000
vt 0.375000 1.000000
vt 0.375000 0.000000
vt 0.625000 0.000000
vt 0.625000 0.250000
vt 0.375000 0.250000
vt 0.125000 0.500000
vt 0.375000 0.500000
vt 0.125000 0.750000
vt 0.625000 0.500000
vt 0.642980 0.731945
vt 0.857109 0.732135
vt 0.875000 0.750000
vt 0.642849 0.517927
vt 0.857238 0.517738
vt 0.875000 0.500000
vt 0.666097 0.708739
vt 0.834116 0.709105
vt 0.665846 0.540953
vt 0.834364 0.540590
vt 0.684583 0.690189
vt 0.815746 0.690629
vt 0.684282 0.559335
vt 0.816045 0.558898
vt 0.702425 0.577355
vt 0.798029 0.576910
s 0
usemtl Material
f 3/1/1 7/2/1 8/3/1 6/4/1
f 6/5/2 8/6/2 10/7/2 5/8/2
f 5/9/3 2/10/3 3/1/3 6/11/3
f 2/10/4 9/12/4 7/2/4 3/1/4
f 5/8/5 10/7/5 9/12/5 2/10/5
f 11/13/6 12/14/6 8/15/6 7/2/6
f 13/16/7 11/13/7 7/2/7 9/12/7
f 12/14/8 14/17/8 10/18/8 8/15/8
f 14/17/9 13/16/9 9/12/9 10/18/9
f 15/19/10 16/20/10 12/14/10 11/13/10
f 17/21/11 15/19/11 11/13/11 13/16/11
f 16/20/12 18/22/12 14/17/12 12/14/12
f 18/22/13 17/21/13 13/16/13 14/17/13
f 19/23/14 20/24/14 16/20/14 15/19/14
f 21/25/15 19/23/15 15/19/15 17/21/15
f 20/24/16 22/26/16 18/22/16 16/20/16
f 22/26/17 21/25/17 17/21/17 18/22/17
f 1/27/18 19/23/18 21/25/18
f 4/28/19 22/26/19 20/24/19
f 4/28/20 1/27/20 21/25/20 22/26/20
f 4/28/21 20/24/21 19/23/21 1/27/21
