# Blender 4.5.3 LTS
# www.blender.org
mtllib cuboo.mtl
o Cube
v 0.601675 1.534085 -0.533452
v 0.601675 -0.146604 -1.617558
v 1.279839 0.514205 1.047667
v 1.279839 -1.166484 -0.036439
v -1.279839 1.166484 0.036439
v -1.279839 -0.514205 -1.047667
v -0.601675 0.146604 1.617558
v -0.601675 -1.534085 0.533452
vn -0.0000 0.8403 0.5421
vn 0.3391 -0.5099 0.7906
vn -0.9408 -0.1838 0.2849
vn -0.0000 -0.8403 -0.5421
vn 0.9408 0.1838 -0.2849
vn -0.3391 0.5099 -0.7906
vt 0.875000 0.500000
vt 0.625000 0.750000
vt 0.625000 0.500000
vt 0.375000 1.000000
vt 0.375000 0.750000
vt 0.625000 0.000000
vt 0.375000 0.250000
vt 0.375000 0.000000
vt 0.375000 0.500000
vt 0.125000 0.750000
vt 0.125000 0.500000
vt 0.625000 0.250000
vt 0.875000 0.750000
vt 0.625000 1.000000
s 0
usemtl Material
f 5/1/1 3/2/1 1/3/1
f 3/2/2 8/4/2 4/5/2
f 7/6/3 6/7/3 8/8/3
f 2/9/4 8/10/4 6/11/4
 f 1/3/5 4/5/5 2/9/5
 f 5/12/6 2/9/6 6/7/6
 f 5/1/1 7/13/1 3/2/1
 f 3/2/2 7/14/2 8/4/2
 f 7/6/3 5/12/3 6/7/3
 f 2/9/4 4/5/4 8/10/4
 f 1/3/5 3/2/5 4/5/5
 f 5/12/6 1/3/6 2/9/6
